<?xml version="1.0" encoding="UTF-8" standalone="no"?>
<!-- Created with Inkscape (http://www.inkscape.org/) -->

<svg
   xmlns:dc="http://purl.org/dc/elements/1.1/"
   xmlns:cc="http://creativecommons.org/ns#"
   xmlns:rdf="http://www.w3.org/1999/02/22-rdf-syntax-ns#"
   xmlns:svg="http://www.w3.org/2000/svg"
   xmlns="http://www.w3.org/2000/svg"
   xmlns:sodipodi="http://sodipodi.sourceforge.net/DTD/sodipodi-0.dtd"
   xmlns:inkscape="http://www.inkscape.org/namespaces/inkscape"
   width="210mm"
   height="297mm"
   viewBox="0 0 210 297"
   version="1.1"
   id="svg8"
   inkscape:version="0.92.1 r15371"
   sodipodi:docname="shruggie.svg">
  <defs
     id="defs2" />
  <sodipodi:namedview
     id="base"
     pagecolor="#ffffff"
     bordercolor="#666666"
     borderopacity="1.0"
     inkscape:pageopacity="0.0"
     inkscape:pageshadow="2"
     inkscape:zoom="3.959798"
     inkscape:cx="249.62878"
     inkscape:cy="805.86019"
     inkscape:document-units="mm"
     inkscape:current-layer="flowRoot10"
     showgrid="false"
     inkscape:snap-nodes="false"
     inkscape:window-width="1839"
     inkscape:window-height="1050"
     inkscape:window-x="81"
     inkscape:window-y="30"
     inkscape:window-maximized="1" />
  <metadata
     id="metadata5">
    <rdf:RDF>
      <cc:Work
         rdf:about="">
        <dc:format>image/svg+xml</dc:format>
        <dc:type
           rdf:resource="http://purl.org/dc/dcmitype/StillImage" />
        <dc:title></dc:title>
      </cc:Work>
    </rdf:RDF>
  </metadata>
  <g
     inkscape:label="Ebene 1"
     inkscape:groupmode="layer"
     id="layer1">
    <g
       aria-label="¯\_(ツ)_/¯"
       transform="scale(0.26458333)"
       style="font-style:normal;font-weight:normal;font-size:40px;line-height:125%;font-family:sans-serif;letter-spacing:0px;word-spacing:0px;fill:#000000;fill-opacity:1;stroke:none;stroke-width:1px;stroke-linecap:butt;stroke-linejoin:miter;stroke-opacity:1"
       id="flowRoot10">
      <path
         d="m 139.41536,275.83138 h 16.40626 v 8.89583 h -16.40626 z"
         style="font-style:normal;font-variant:normal;font-weight:bold;font-stretch:normal;font-size:53.33333588px;font-family:'DejaVu Sans';-inkscape-font-specification:'DejaVu Sans Bold'"
         id="path18"
         inkscape:connector-curvature="0"
         sodipodi:nodetypes="ccccc" />
      <path
         d="m 170.28503,319.40698 -13.69792,-43.82813 h 9.75521 l 13.72396,43.82813 z"
         style="font-style:normal;font-variant:normal;font-weight:bold;font-stretch:normal;font-size:53.33333588px;font-family:'DejaVu Sans';-inkscape-font-specification:'DejaVu Sans Bold'"
         id="path20"
         inkscape:connector-curvature="0"
         sodipodi:nodetypes="ccccc" />
      <path
         d="m 207.09766,319.98242 v 8.94792 h -26.66667 v -8.94792 z"
         style="font-style:normal;font-variant:normal;font-weight:bold;font-stretch:normal;font-size:53.33333588px;font-family:'DejaVu Sans';-inkscape-font-specification:'DejaVu Sans Bold'"
         id="path22"
         inkscape:connector-curvature="0"
         sodipodi:nodetypes="ccccc" />
      <path
         d="m 227.20182,323.38346 h -9.73437 c -2.65625,-4.28819 -4.61806,-8.35937 -5.88542,-12.21354 -1.26736,-3.87153 -1.90104,-7.70833 -1.90104,-11.51042 0,-3.80208 0.63368,-7.64756 1.90104,-11.53645 1.28472,-3.90625 3.24653,-7.98612 5.88542,-12.23959 h 9.73437 c -2.22222,4.11459 -3.88889,8.14237 -5,12.08334 -1.11111,3.92361 -1.66666,7.80381 -1.66666,11.64062 0,3.83681 0.54687,7.7257 1.64062,11.66667 1.11111,3.94097 2.78646,7.97743 5.02604,12.10937 z"
         style="font-style:normal;font-variant:normal;font-weight:bold;font-stretch:normal;font-size:53.33333588px;font-family:'DejaVu Sans';-inkscape-font-specification:'DejaVu Sans Bold'"
         id="path24"
         inkscape:connector-curvature="0"
         sodipodi:nodetypes="cccsccccscc" />
      <path
         d="m 237.36329,296.76367 c -1.42361,-4.82639 -3.13368,-9.0625 -5.13021,-12.70833 l 8.32292,-3.79688 c 2.10069,3.80209 3.89757,7.94271 5.39062,12.42188 z m 12.52604,-3.09896 c -1.19791,-4.42708 -2.87326,-8.68055 -5.02604,-12.76041 l 8.27083,-3.7448 c 2.04861,3.73264 3.81077,7.90799 5.28646,12.52605 z m -8.85417,20.23959 c 9.20139,-3.50695 15.72917,-9.00174 19.58334,-16.48438 2.41319,-4.65278 4.23611,-10.94618 5.46875,-18.88021 l 8.60937,5.43229 c -1.59722,9.89583 -4.42708,17.8125 -8.48958,23.75001 -3.95833,5.86805 -11.98264,10.48611 -20.07292,13.85416 z"
         style="font-style:normal;font-variant:normal;font-weight:bold;font-stretch:normal;font-size:53.33333588px;font-family:'DejaVu Sans';-inkscape-font-specification:'DejaVu Sans Bold'"
         id="path26"
         inkscape:connector-curvature="0"
         sodipodi:nodetypes="ccccccccccccccccc" />
      <path
         d="m 280.53516,323.38346 c 2.22223,-4.13194 3.88889,-8.1684 5,-12.10937 1.11111,-3.94097 1.66667,-7.82986 1.66667,-11.66667 0,-3.83681 -0.55556,-7.71701 -1.66667,-11.64062 -1.11111,-3.94097 -2.77777,-7.96875 -5,-12.08334 h 9.73438 c 2.63889,4.25347 4.59201,8.33334 5.85937,12.23959 1.28473,3.88889 1.92709,7.73437 1.92709,11.53645 0,3.80209 -0.63368,7.63889 -1.90105,11.51042 -1.26736,3.85417 -3.22916,7.92535 -5.88541,12.21354 z"
         style="font-style:normal;font-variant:normal;font-weight:bold;font-stretch:normal;font-size:53.33333588px;font-family:'DejaVu Sans';-inkscape-font-specification:'DejaVu Sans Bold'"
         id="path28"
         inkscape:connector-curvature="0"
         sodipodi:nodetypes="ccsccccsccc" />
      <path
         d="m 327.306,319.98242 v 8.94792 h -26.66667 v -8.94792 z"
         style="font-style:normal;font-variant:normal;font-weight:bold;font-stretch:normal;font-size:53.33333588px;font-family:'DejaVu Sans';-inkscape-font-specification:'DejaVu Sans Bold'"
         id="path30"
         inkscape:connector-curvature="0"
         sodipodi:nodetypes="ccccc" />
      <path
         d="m 340.63921,275.57885 h 9.78125 l -13.72396,43.82813 h -9.75521 z"
         style="font-style:normal;font-variant:normal;font-weight:bold;font-stretch:normal;font-size:53.33333588px;font-family:'DejaVu Sans';-inkscape-font-specification:'DejaVu Sans Bold'"
         id="path32"
         inkscape:connector-curvature="0"
         sodipodi:nodetypes="ccccc" />
      <path
         d="m 351.91538,275.83138 h 16.40625 v 8.89583 h -16.40625 z"
         style="font-style:normal;font-variant:normal;font-weight:bold;font-stretch:normal;font-size:53.33333588px;font-family:'DejaVu Sans';-inkscape-font-specification:'DejaVu Sans Bold'"
         id="path34"
         inkscape:connector-curvature="0"
         sodipodi:nodetypes="ccccc" />
    </g>
  </g>
</svg>
